<mxfile host="Electron" modified="2024-08-22T01:35:36.154Z" agent="Mozilla/5.0 (Macintosh; Intel Mac OS X 10_15_7) AppleWebKit/537.36 (KHTML, like Gecko) draw.io/24.6.1 Chrome/124.0.6367.207 Electron/30.0.6 Safari/537.36" etag="lj6Ww_tHIaCaEiAFyTH0" version="24.6.1" type="device">
  <diagram id="C5RBs43oDa-KdzZeNtuy" name="Page-1">
    <mxGraphModel dx="1434" dy="769" grid="1" gridSize="10" guides="1" tooltips="1" connect="1" arrows="1" fold="1" page="1" pageScale="1" pageWidth="827" pageHeight="1169" math="0" shadow="0">
      <root>
        <mxCell id="WIyWlLk6GJQsqaUBKTNV-0" />
        <mxCell id="WIyWlLk6GJQsqaUBKTNV-1" parent="WIyWlLk6GJQsqaUBKTNV-0" />
        <mxCell id="gcrT6u6a9H3XIiLjpDzy-18" value="" style="rounded=0;whiteSpace=wrap;html=1;" vertex="1" parent="WIyWlLk6GJQsqaUBKTNV-1">
          <mxGeometry x="150" y="140" width="540" height="890" as="geometry" />
        </mxCell>
        <mxCell id="gcrT6u6a9H3XIiLjpDzy-2" style="edgeStyle=orthogonalEdgeStyle;rounded=0;orthogonalLoop=1;jettySize=auto;html=1;exitX=0.5;exitY=1;exitDx=0;exitDy=0;entryX=0.5;entryY=0;entryDx=0;entryDy=0;" edge="1" parent="WIyWlLk6GJQsqaUBKTNV-1" source="gcrT6u6a9H3XIiLjpDzy-0" target="gcrT6u6a9H3XIiLjpDzy-1">
          <mxGeometry relative="1" as="geometry" />
        </mxCell>
        <mxCell id="gcrT6u6a9H3XIiLjpDzy-0" value="&lt;font style=&quot;font-size: 16px;&quot;&gt;指标/数据/样本&lt;/font&gt;" style="rounded=0;whiteSpace=wrap;html=1;" vertex="1" parent="WIyWlLk6GJQsqaUBKTNV-1">
          <mxGeometry x="330" y="170" width="120" height="60" as="geometry" />
        </mxCell>
        <mxCell id="gcrT6u6a9H3XIiLjpDzy-4" style="edgeStyle=orthogonalEdgeStyle;rounded=0;orthogonalLoop=1;jettySize=auto;html=1;exitX=0.5;exitY=1;exitDx=0;exitDy=0;entryX=0.5;entryY=0;entryDx=0;entryDy=0;" edge="1" parent="WIyWlLk6GJQsqaUBKTNV-1" source="gcrT6u6a9H3XIiLjpDzy-1" target="gcrT6u6a9H3XIiLjpDzy-3">
          <mxGeometry relative="1" as="geometry" />
        </mxCell>
        <mxCell id="gcrT6u6a9H3XIiLjpDzy-1" value="&lt;font style=&quot;font-size: 16px;&quot;&gt;获取标签&lt;/font&gt;" style="rounded=0;whiteSpace=wrap;html=1;" vertex="1" parent="WIyWlLk6GJQsqaUBKTNV-1">
          <mxGeometry x="330" y="290" width="120" height="60" as="geometry" />
        </mxCell>
        <mxCell id="gcrT6u6a9H3XIiLjpDzy-8" style="edgeStyle=orthogonalEdgeStyle;rounded=0;orthogonalLoop=1;jettySize=auto;html=1;exitX=0.5;exitY=1;exitDx=0;exitDy=0;entryX=0.5;entryY=0;entryDx=0;entryDy=0;" edge="1" parent="WIyWlLk6GJQsqaUBKTNV-1" source="gcrT6u6a9H3XIiLjpDzy-3" target="gcrT6u6a9H3XIiLjpDzy-7">
          <mxGeometry relative="1" as="geometry" />
        </mxCell>
        <mxCell id="gcrT6u6a9H3XIiLjpDzy-15" style="edgeStyle=orthogonalEdgeStyle;rounded=0;orthogonalLoop=1;jettySize=auto;html=1;exitX=1;exitY=0.5;exitDx=0;exitDy=0;entryX=1;entryY=0.5;entryDx=0;entryDy=0;" edge="1" parent="WIyWlLk6GJQsqaUBKTNV-1" source="gcrT6u6a9H3XIiLjpDzy-3" target="gcrT6u6a9H3XIiLjpDzy-6">
          <mxGeometry relative="1" as="geometry">
            <Array as="points">
              <mxPoint x="540" y="455" />
              <mxPoint x="540" y="950" />
            </Array>
          </mxGeometry>
        </mxCell>
        <mxCell id="gcrT6u6a9H3XIiLjpDzy-3" value="&lt;font style=&quot;font-size: 16px;&quot;&gt;是否存在此指标的&lt;span style=&quot;color: rgb(25, 27, 31); font-family: -apple-system, &amp;quot;system-ui&amp;quot;, &amp;quot;Helvetica Neue&amp;quot;, &amp;quot;PingFang SC&amp;quot;, &amp;quot;Microsoft YaHei&amp;quot;, &amp;quot;Source Han Sans SC&amp;quot;, &amp;quot;Noto Sans CJK SC&amp;quot;, &amp;quot;WenQuanYi Micro Hei&amp;quot;, sans-serif; text-align: start; background-color: rgb(255, 255, 255);&quot;&gt;seriesId&lt;/span&gt;&lt;/font&gt;" style="rhombus;whiteSpace=wrap;html=1;" vertex="1" parent="WIyWlLk6GJQsqaUBKTNV-1">
          <mxGeometry x="332.5" y="410" width="115" height="90" as="geometry" />
        </mxCell>
        <mxCell id="gcrT6u6a9H3XIiLjpDzy-6" value="&lt;div style=&quot;text-align: center;&quot;&gt;&lt;span style=&quot;text-align: start; font-size: 16px; background-color: rgb(251, 251, 251);&quot;&gt;返回&lt;/span&gt;&lt;span style=&quot;background-color: rgb(255, 255, 255); color: rgb(25, 27, 31); font-family: -apple-system, &amp;quot;system-ui&amp;quot;, &amp;quot;Helvetica Neue&amp;quot;, &amp;quot;PingFang SC&amp;quot;, &amp;quot;Microsoft YaHei&amp;quot;, &amp;quot;Source Han Sans SC&amp;quot;, &amp;quot;Noto Sans CJK SC&amp;quot;, &amp;quot;WenQuanYi Micro Hei&amp;quot;, sans-serif; text-align: start; font-size: 16px;&quot;&gt;seriesId&lt;/span&gt;&lt;/div&gt;" style="rounded=0;whiteSpace=wrap;html=1;" vertex="1" parent="WIyWlLk6GJQsqaUBKTNV-1">
          <mxGeometry x="330" y="920" width="120" height="60" as="geometry" />
        </mxCell>
        <mxCell id="gcrT6u6a9H3XIiLjpDzy-11" style="edgeStyle=orthogonalEdgeStyle;rounded=0;orthogonalLoop=1;jettySize=auto;html=1;exitX=0.5;exitY=1;exitDx=0;exitDy=0;entryX=0.5;entryY=0;entryDx=0;entryDy=0;" edge="1" parent="WIyWlLk6GJQsqaUBKTNV-1" source="gcrT6u6a9H3XIiLjpDzy-7" target="gcrT6u6a9H3XIiLjpDzy-10">
          <mxGeometry relative="1" as="geometry" />
        </mxCell>
        <mxCell id="gcrT6u6a9H3XIiLjpDzy-7" value="&lt;font style=&quot;font-size: 16px;&quot;&gt;将指标封装成&lt;/font&gt;&lt;div style=&quot;font-size: 16px;&quot;&gt;&lt;span style=&quot;color: rgb(25, 27, 31); font-family: -apple-system, &amp;quot;system-ui&amp;quot;, &amp;quot;Helvetica Neue&amp;quot;, &amp;quot;PingFang SC&amp;quot;, &amp;quot;Microsoft YaHei&amp;quot;, &amp;quot;Source Han Sans SC&amp;quot;, &amp;quot;Noto Sans CJK SC&amp;quot;, &amp;quot;WenQuanYi Micro Hei&amp;quot;, sans-serif; text-align: start; background-color: rgb(255, 255, 255);&quot;&gt;&lt;font style=&quot;font-size: 16px;&quot;&gt;series record&lt;/font&gt;&lt;/span&gt;&lt;/div&gt;" style="rounded=0;whiteSpace=wrap;html=1;" vertex="1" parent="WIyWlLk6GJQsqaUBKTNV-1">
          <mxGeometry x="330" y="560" width="120" height="60" as="geometry" />
        </mxCell>
        <mxCell id="gcrT6u6a9H3XIiLjpDzy-13" style="edgeStyle=orthogonalEdgeStyle;rounded=0;orthogonalLoop=1;jettySize=auto;html=1;exitX=0.5;exitY=1;exitDx=0;exitDy=0;entryX=0.5;entryY=0;entryDx=0;entryDy=0;" edge="1" parent="WIyWlLk6GJQsqaUBKTNV-1" source="gcrT6u6a9H3XIiLjpDzy-10" target="gcrT6u6a9H3XIiLjpDzy-12">
          <mxGeometry relative="1" as="geometry" />
        </mxCell>
        <mxCell id="gcrT6u6a9H3XIiLjpDzy-10" value="&lt;font style=&quot;font-size: 16px;&quot;&gt;获取&lt;span style=&quot;color: rgb(25, 27, 31); font-family: -apple-system, &amp;quot;system-ui&amp;quot;, &amp;quot;Helvetica Neue&amp;quot;, &amp;quot;PingFang SC&amp;quot;, &amp;quot;Microsoft YaHei&amp;quot;, &amp;quot;Source Han Sans SC&amp;quot;, &amp;quot;Noto Sans CJK SC&amp;quot;, &amp;quot;WenQuanYi Micro Hei&amp;quot;, sans-serif; text-align: start; background-color: rgb(255, 255, 255);&quot;&gt;seriesId&lt;/span&gt;&lt;/font&gt;" style="rounded=0;whiteSpace=wrap;html=1;" vertex="1" parent="WIyWlLk6GJQsqaUBKTNV-1">
          <mxGeometry x="330" y="680" width="120" height="60" as="geometry" />
        </mxCell>
        <mxCell id="gcrT6u6a9H3XIiLjpDzy-14" style="edgeStyle=orthogonalEdgeStyle;rounded=0;orthogonalLoop=1;jettySize=auto;html=1;exitX=0.5;exitY=1;exitDx=0;exitDy=0;entryX=0.5;entryY=0;entryDx=0;entryDy=0;" edge="1" parent="WIyWlLk6GJQsqaUBKTNV-1" source="gcrT6u6a9H3XIiLjpDzy-12" target="gcrT6u6a9H3XIiLjpDzy-6">
          <mxGeometry relative="1" as="geometry" />
        </mxCell>
        <mxCell id="gcrT6u6a9H3XIiLjpDzy-12" value="&lt;font style=&quot;font-size: 16px;&quot;&gt;内存&lt;/font&gt;&lt;div style=&quot;font-size: 16px;&quot;&gt;&lt;font style=&quot;font-size: 16px;&quot;&gt;标签与&lt;span style=&quot;color: rgb(25, 27, 31); font-family: -apple-system, &amp;quot;system-ui&amp;quot;, &amp;quot;Helvetica Neue&amp;quot;, &amp;quot;PingFang SC&amp;quot;, &amp;quot;Microsoft YaHei&amp;quot;, &amp;quot;Source Han Sans SC&amp;quot;, &amp;quot;Noto Sans CJK SC&amp;quot;, &amp;quot;WenQuanYi Micro Hei&amp;quot;, sans-serif; text-align: start; background-color: rgb(255, 255, 255);&quot;&gt;seriesId的映射&lt;/span&gt;&lt;/font&gt;&lt;/div&gt;" style="rounded=0;whiteSpace=wrap;html=1;" vertex="1" parent="WIyWlLk6GJQsqaUBKTNV-1">
          <mxGeometry x="330" y="800" width="120" height="60" as="geometry" />
        </mxCell>
        <mxCell id="gcrT6u6a9H3XIiLjpDzy-16" value="&lt;font style=&quot;font-size: 16px;&quot;&gt;否&lt;/font&gt;" style="text;html=1;align=center;verticalAlign=middle;whiteSpace=wrap;rounded=0;" vertex="1" parent="WIyWlLk6GJQsqaUBKTNV-1">
          <mxGeometry x="320" y="500" width="90" height="50" as="geometry" />
        </mxCell>
        <mxCell id="gcrT6u6a9H3XIiLjpDzy-17" value="&lt;span style=&quot;font-size: 16px;&quot;&gt;是&lt;/span&gt;" style="text;html=1;align=center;verticalAlign=middle;whiteSpace=wrap;rounded=0;" vertex="1" parent="WIyWlLk6GJQsqaUBKTNV-1">
          <mxGeometry x="440" y="410" width="90" height="50" as="geometry" />
        </mxCell>
      </root>
    </mxGraphModel>
  </diagram>
</mxfile>
